<svg width="24" height="24" viewBox="0 0 24 24" fill="none" xmlns="http://www.w3.org/2000/svg">
<path d="M19 22H5C3.895 22 3 21.105 3 20V4C3 2.895 3.895 2 5 2H19C20.105 2 21 2.895 21 4V20C21 21.105 20.105 22 19 22Z" stroke="#333333" stroke-width="1.5" stroke-linecap="round" stroke-linejoin="round"/>
<path d="M16 15H8" stroke="#333333" stroke-width="1.5" stroke-linecap="round" stroke-linejoin="round"/>
<path d="M14 18H10" stroke="#333333" stroke-width="1.5" stroke-linecap="round" stroke-linejoin="round"/>
<path d="M12 10.6638L13.504 11.4538C13.797 11.6078 14.139 11.3587 14.083 11.0327L13.796 9.35775L15.013 8.17275C15.25 7.94175 15.119 7.53975 14.792 7.49175L13.11 7.24775L12.358 5.72275C12.212 5.42575 11.788 5.42575 11.642 5.72275L10.89 7.24775L9.20795 7.49275C8.88095 7.53975 8.74995 7.94275 8.98695 8.17375L10.204 9.35875L9.91695 11.0338C9.86095 11.3598 10.203 11.6088 10.496 11.4548L12 10.6638Z" stroke="#333333" stroke-width="1.5" stroke-linecap="round" stroke-linejoin="round"/>
</svg>
