<svg width="24" height="24" viewBox="0 0 24 24" fill="none" xmlns="http://www.w3.org/2000/svg">
<path d="M18.4981 18.5625V20.4973C18.4981 20.5962 18.4688 20.6929 18.4138 20.7751C18.3589 20.8573 18.2808 20.9214 18.1895 20.9592C18.0981 20.9971 17.9976 21.007 17.9006 20.9877C17.8036 20.9684 17.7145 20.9208 17.6446 20.8509L15.3562 18.5625" stroke="#333333" stroke-width="1.5" stroke-linecap="round" stroke-linejoin="round"/>
<path d="M18 9.5H18.5035C19.1656 9.5 19.8006 9.76302 20.2688 10.2312C20.737 10.6994 21 11.3344 21 11.9965V16.0678C21 16.7299 20.737 17.3648 20.2688 17.833C19.8006 18.3012 19.1656 18.5642 18.5035 18.5642" stroke="#333333" stroke-width="1.5" stroke-linecap="round" stroke-linejoin="round"/>
<path d="M15.3602 18.5642H12.495C11.8329 18.5642 11.1979 18.3012 10.7297 17.833C10.2616 17.3648 9.99854 16.7299 9.99854 16.0678V15" stroke="#333333" stroke-width="1.5" stroke-linecap="round" stroke-linejoin="round"/>
<path d="M8.70605 12L6.35355 14.3526C6.28362 14.4225 6.19453 14.4701 6.09754 14.4894C6.00055 14.5087 5.90001 14.4988 5.80865 14.4609C5.71729 14.4231 5.6392 14.359 5.58426 14.2768C5.52932 14.1946 5.5 14.0979 5.5 13.999V12H5.49646C5.16862 12 4.84399 11.9354 4.5411 11.81C4.23822 11.6845 3.96301 11.5006 3.73119 11.2688C3.49937 11.037 3.31548 10.7618 3.19003 10.4589C3.06457 10.156 3 9.83136 3 9.50352V5.49646C3 4.83436 3.26302 4.19937 3.7312 3.7312C4.19937 3.26302 4.83436 3 5.49646 3H12.5035C13.1656 3 13.8006 3.26302 14.2688 3.7312C14.737 4.19937 15 4.83436 15 5.49646V9.50352C15 9.83136 14.9354 10.156 14.81 10.4589C14.6845 10.7618 14.5006 11.037 14.2688 11.2688C14.037 11.5006 13.7618 11.6845 13.4589 11.81C13.156 11.9354 12.8314 12 12.5035 12H8.70605Z" stroke="#333333" stroke-width="1.5" stroke-linecap="round" stroke-linejoin="round"/>
</svg>
