<svg width="24" height="24" viewBox="0 0 24 24" fill="none" xmlns="http://www.w3.org/2000/svg">
<path d="M7.00122 21H17.0012C17.7969 21 18.5599 20.6839 19.1225 20.1213C19.6851 19.5587 20.0012 18.7956 20.0012 18V8.37167C20.0012 7.57602 19.6851 6.81296 19.1225 6.25035L16.7509 3.87868C16.1883 3.31607 15.4252 3 14.6296 3H7.00122C6.20557 3 5.44251 3.31607 4.8799 3.87868C4.31729 4.44129 4.00122 5.20435 4.00122 6V18C4.00122 18.7956 4.31729 19.5587 4.8799 20.1213C5.44251 20.6839 6.20557 21 7.00122 21Z" stroke="#333333" stroke-width="1.5" stroke-linecap="round" stroke-linejoin="round"/>
<path d="M20.0012 8.5H16.5012C15.9708 8.5 15.4621 8.28929 15.087 7.91421C14.7119 7.53914 14.5012 7.03043 14.5012 6.5V3" stroke="#333333" stroke-width="1.5" stroke-linecap="round" stroke-linejoin="round"/>
</svg>
