<svg width="24" height="24" viewBox="0 0 24 24" fill="none" xmlns="http://www.w3.org/2000/svg">
<path d="M14.5878 2.88654C16.0199 4.31859 16.0199 6.64041 14.5878 8.07246C13.1558 9.50451 10.834 9.50451 9.40192 8.07246C7.96987 6.64041 7.96987 4.31859 9.40192 2.88654C10.834 1.45449 13.1558 1.45449 14.5878 2.88654Z" stroke="#333333" stroke-width="1.5" stroke-linecap="round" stroke-linejoin="round"/>
<path d="M21.2246 14.377C22.6543 15.8067 22.6543 18.1247 21.2246 19.5544C19.7949 20.9841 17.4768 20.9841 16.0471 19.5544C14.6174 18.1247 14.6174 15.8067 16.0471 14.377C17.4768 12.9473 19.7949 12.9473 21.2246 14.377Z" stroke="#333333" stroke-width="1.5" stroke-linecap="round" stroke-linejoin="round"/>
<path d="M7.9526 14.377C9.38231 15.8067 9.38231 18.1247 7.9526 19.5544C6.52289 20.9841 4.20487 20.9841 2.77516 19.5544C1.34545 18.1247 1.34545 15.8067 2.77516 14.377C4.20487 12.9473 6.52289 12.9473 7.9526 14.377Z" stroke="#333333" stroke-width="1.5" stroke-linecap="round" stroke-linejoin="round"/>
<path d="M17.4185 7.72882C20.411 10.7214 20.411 15.5733 17.4185 18.5659C14.4259 21.5585 9.57393 21.5585 6.58136 18.5659C3.58877 15.5733 3.58877 10.7214 6.58136 7.72882C9.57395 4.73623 14.4259 4.73623 17.4185 7.72882Z" stroke="#333333" stroke-width="1.5" stroke-linecap="round" stroke-linejoin="round"/>
</svg>
