<svg width="24" height="24" viewBox="0 0 24 24" fill="none" xmlns="http://www.w3.org/2000/svg">
<path d="M18 12.0013H16.309C16.12 12.0013 15.946 12.1083 15.862 12.2773L14.447 15.1063C14.263 15.4753 13.737 15.4753 13.553 15.1063L10.43 8.86225C10.249 8.50025 9.735 8.49225 9.543 8.84825L7.984 11.7383C7.896 11.9003 7.727 12.0013 7.544 12.0013H3" stroke="#333333" stroke-width="1.5" stroke-linecap="round" stroke-linejoin="round"/>
<path d="M3.52295 9C4.75995 5.507 8.08295 3 11.9999 3C16.9709 3 20.9999 7.029 20.9999 12C20.9999 16.971 16.9709 21 11.9999 21C8.08295 21 4.75995 18.493 3.52295 15" stroke="#333333" stroke-width="1.5" stroke-linecap="round" stroke-linejoin="round"/>
</svg>
