<svg width="24" height="24" viewBox="0 0 24 24" fill="none" xmlns="http://www.w3.org/2000/svg">
<path d="M18 14V19C18 20.1046 17.1046 21 16 21H5C3.89543 21 3 20.1046 3 19V5C3 3.89543 3.89543 3 5 3H16C17.1046 3 18 3.89543 18 5V8" stroke="#333333" stroke-width="1.5" stroke-linecap="round" stroke-linejoin="round"/>
<path d="M12.9985 13.414V16H15.5845C15.8497 16 16.104 15.8946 16.2915 15.707L20.3775 11.621C21.2056 10.7925 21.2056 9.44962 20.3775 8.62104C19.549 7.79299 18.2061 7.79299 17.3775 8.62104L13.2915 12.707C13.104 12.8945 12.9986 13.1488 12.9985 13.414Z" stroke="#333333" stroke-width="1.5" stroke-linecap="round" stroke-linejoin="round"/>
<path d="M6.99854 12H9.99854" stroke="#333333" stroke-width="1.5" stroke-linecap="round" stroke-linejoin="round"/>
<path d="M6.99854 16H9.99854" stroke="#333333" stroke-width="1.5" stroke-linecap="round" stroke-linejoin="round"/>
<path d="M6.99854 8H13.9985" stroke="#333333" stroke-width="1.5" stroke-linecap="round" stroke-linejoin="round"/>
</svg>
