<svg width="24" height="24" viewBox="0 0 24 24" fill="none" xmlns="http://www.w3.org/2000/svg">
<path d="M19.3432 3H4.65684C3.74179 3 3 3.74179 3 4.65684V19.3432C3 20.2582 3.74179 21 4.65684 21H19.3432C20.2582 21 21 20.2582 21 19.3432V4.65684C21 3.74179 20.2582 3 19.3432 3Z" stroke="#333333" stroke-width="1.5" stroke-linecap="round" stroke-linejoin="round"/>
<path d="M21 8H3" stroke="#333333" stroke-width="1.5" stroke-linecap="round" stroke-linejoin="round"/>
<path d="M17.2999 11.5031C17.2999 11.5307 17.2776 11.5531 17.25 11.5531C17.2223 11.5531 17.2 11.5307 17.2 11.5031C17.2 11.4755 17.2223 11.4531 17.25 11.4531" stroke="#333333" stroke-width="1.5" stroke-linecap="round" stroke-linejoin="round"/>
<path d="M17.25 11.4531V11.4531C17.2776 11.4531 17.3 11.4755 17.3 11.5031V11.5031" stroke="#333333" stroke-width="1.5" stroke-linecap="round" stroke-linejoin="round"/>
<path d="M13.799 11.5031C13.799 11.5307 13.7766 11.5531 13.749 11.5531C13.7214 11.5531 13.699 11.5307 13.699 11.5031C13.699 11.4755 13.7214 11.4531 13.749 11.4531" stroke="#333333" stroke-width="1.5" stroke-linecap="round" stroke-linejoin="round"/>
<path d="M13.749 11.4531V11.4531C13.7766 11.4531 13.799 11.4755 13.799 11.5031V11.5031" stroke="#333333" stroke-width="1.5" stroke-linecap="round" stroke-linejoin="round"/>
<path d="M10.299 11.5031C10.299 11.5307 10.2766 11.5531 10.249 11.5531C10.2214 11.5531 10.199 11.5307 10.199 11.5031C10.199 11.4755 10.2214 11.4531 10.249 11.4531" stroke="#333333" stroke-width="1.5" stroke-linecap="round" stroke-linejoin="round"/>
<path d="M10.249 11.4531V11.4531C10.2766 11.4531 10.299 11.4755 10.299 11.5031V11.5031" stroke="#333333" stroke-width="1.5" stroke-linecap="round" stroke-linejoin="round"/>
<path d="M6.79897 14.5031C6.79897 14.5307 6.77659 14.5531 6.74897 14.5531C6.72136 14.5531 6.69897 14.5307 6.69897 14.5031C6.69897 14.4755 6.72136 14.4531 6.74897 14.4531" stroke="#333333" stroke-width="1.5" stroke-linecap="round" stroke-linejoin="round"/>
<path d="M6.74902 14.4531V14.4531C6.77664 14.4531 6.79902 14.4755 6.79902 14.5031" stroke="#333333" stroke-width="1.5" stroke-linecap="round" stroke-linejoin="round"/>
<path d="M10.299 14.5031C10.299 14.5307 10.2766 14.5531 10.249 14.5531C10.2214 14.5531 10.199 14.5307 10.199 14.5031C10.199 14.4755 10.2214 14.4531 10.249 14.4531" stroke="#333333" stroke-width="1.5" stroke-linecap="round" stroke-linejoin="round"/>
<path d="M10.249 14.4531V14.4531C10.2766 14.4531 10.299 14.4755 10.299 14.5031V14.5031" stroke="#333333" stroke-width="1.5" stroke-linecap="round" stroke-linejoin="round"/>
<path d="M13.799 14.5031C13.799 14.5307 13.7766 14.5531 13.749 14.5531C13.7214 14.5531 13.699 14.5307 13.699 14.5031C13.699 14.4755 13.7214 14.4531 13.749 14.4531" stroke="#333333" stroke-width="1.5" stroke-linecap="round" stroke-linejoin="round"/>
<path d="M13.749 14.4531V14.4531C13.7766 14.4531 13.799 14.4755 13.799 14.5031V14.5031" stroke="#333333" stroke-width="1.5" stroke-linecap="round" stroke-linejoin="round"/>
<path d="M17.2999 14.5031C17.2999 14.5307 17.2776 14.5531 17.25 14.5531C17.2223 14.5531 17.2 14.5307 17.2 14.5031C17.2 14.4755 17.2223 14.4531 17.25 14.4531" stroke="#333333" stroke-width="1.5" stroke-linecap="round" stroke-linejoin="round"/>
<path d="M17.25 14.4531V14.4531C17.2776 14.4531 17.3 14.4755 17.3 14.5031V14.5031" stroke="#333333" stroke-width="1.5" stroke-linecap="round" stroke-linejoin="round"/>
<path d="M17.2999 17.5031C17.2999 17.5307 17.2776 17.5531 17.25 17.5531C17.2223 17.5531 17.2 17.5307 17.2 17.5031C17.2 17.4755 17.2223 17.4531 17.25 17.4531" stroke="#333333" stroke-width="1.5" stroke-linecap="round" stroke-linejoin="round"/>
<path d="M17.25 17.4531V17.4531C17.2776 17.4531 17.3 17.4755 17.3 17.5031" stroke="#333333" stroke-width="1.5" stroke-linecap="round" stroke-linejoin="round"/>
<path d="M13.799 17.5031C13.799 17.5307 13.7766 17.5531 13.749 17.5531C13.7214 17.5531 13.699 17.5307 13.699 17.5031C13.699 17.4755 13.7214 17.4531 13.749 17.4531" stroke="#333333" stroke-width="1.5" stroke-linecap="round" stroke-linejoin="round"/>
<path d="M13.749 17.4531V17.4531C13.7766 17.4531 13.799 17.4755 13.799 17.5031" stroke="#333333" stroke-width="1.5" stroke-linecap="round" stroke-linejoin="round"/>
<path d="M10.299 17.5031C10.299 17.5307 10.2766 17.5531 10.249 17.5531C10.2214 17.5531 10.199 17.5307 10.199 17.5031C10.199 17.4755 10.2214 17.4531 10.249 17.4531" stroke="#333333" stroke-width="1.5" stroke-linecap="round" stroke-linejoin="round"/>
<path d="M10.249 17.4531V17.4531C10.2766 17.4531 10.299 17.4755 10.299 17.5031" stroke="#333333" stroke-width="1.5" stroke-linecap="round" stroke-linejoin="round"/>
<path d="M6.79897 17.5031C6.79897 17.5307 6.77659 17.5531 6.74897 17.5531C6.72136 17.5531 6.69897 17.5307 6.69897 17.5031C6.69897 17.4755 6.72136 17.4531 6.74897 17.4531" stroke="#333333" stroke-width="1.5" stroke-linecap="round" stroke-linejoin="round"/>
<path d="M6.74902 17.4531V17.4531C6.77664 17.4531 6.79902 17.4755 6.79902 17.5031" stroke="#333333" stroke-width="1.5" stroke-linecap="round" stroke-linejoin="round"/>
</svg>
