<svg width="24" height="24" viewBox="0 0 24 24" fill="none" xmlns="http://www.w3.org/2000/svg">
<path d="M14.25 17.5V22L12 20.875L9.75 22V17.5" stroke="#333333" stroke-width="1.5" stroke-linecap="round" stroke-linejoin="round"/>
<path d="M8.21994 14.8353L8.75194 15.5353L8.86694 16.4003V16.4003C8.93087 16.88 9.30825 17.2574 9.78794 17.3213L10.6549 17.4373L11.3489 17.9683V17.9683C11.7331 18.2603 12.2648 18.2603 12.6489 17.9683L13.3489 17.4373L14.2149 17.3213V17.3213C14.6949 17.2575 15.0726 16.8802 15.1369 16.4003L15.2529 15.5333C15.2529 15.5333 15.5209 15.1823 15.7839 14.8393V14.8393C16.076 14.4552 16.076 13.9234 15.7839 13.5393L15.2529 12.8393L15.1369 11.9743V11.9743C15.0735 11.4945 14.6966 11.1167 14.2169 11.0523L13.3489 10.9373L12.6489 10.4073V10.4073C12.2652 10.1142 11.7327 10.1142 11.3489 10.4073L10.6489 10.9373L9.78294 11.0523V11.0523C9.30309 11.1159 8.92554 11.4934 8.86194 11.9733L8.74594 12.8403L8.21494 13.5343V13.5343C7.92455 13.92 7.9266 14.4519 8.21994 14.8353V14.8353Z" stroke="#333333" stroke-width="1.5" stroke-linecap="round" stroke-linejoin="round"/>
<path d="M17 19.0007H19V19.0007C20.1046 19.0007 21 18.1053 21 17.0007V5.59375C21 4.48918 20.1046 3.59375 19 3.59375H5V3.59375C3.89543 3.59375 3 4.48918 3 5.59375V17.0007V17.0007C3 18.1053 3.89543 19.0007 5 19.0007H7" stroke="#333333" stroke-width="1.5" stroke-linecap="round" stroke-linejoin="round"/>
<path d="M7.5 7H16.5" stroke="#333333" stroke-width="1.5" stroke-linecap="round" stroke-linejoin="round"/>
</svg>
