<svg width="24" height="24" viewBox="0 0 24 24" fill="none" xmlns="http://www.w3.org/2000/svg">
<path d="M21.4957 11.4728C20.8236 10.8007 19.7339 10.8008 19.0619 11.4729L12.2928 18.2468C12.1054 18.4344 12 18.6886 12 18.9538V20.9687H14.015C14.2802 20.9687 14.5345 20.8633 14.722 20.6758L21.4958 13.9069C21.4963 13.9063 21.4969 13.9058 21.4974 13.9054C22.1687 13.2332 22.1678 12.144 21.4957 11.4728ZM21.4957 11.4728C21.4957 11.4728 21.4957 11.4727 21.4957 11.4728Z" stroke="#333333" stroke-width="1.5" stroke-linecap="round" stroke-linejoin="round"/>
<path d="M16.5645 13.9766L18.9945 16.4066" stroke="#333333" stroke-width="1.5" stroke-linecap="round" stroke-linejoin="round"/>
<path d="M20.7181 14.6797L21.6181 15.5797C22.0918 16.0543 22.0918 16.823 21.6181 17.2976L19.9771 18.9386" stroke="#333333" stroke-width="1.5" stroke-linecap="round" stroke-linejoin="round"/>
<path d="M6.99951 8.96875H12.9995" stroke="#333333" stroke-width="1.5" stroke-linecap="round" stroke-linejoin="round"/>
<path d="M6.99951 12.9688H10.9995" stroke="#333333" stroke-width="1.5" stroke-linecap="round" stroke-linejoin="round"/>
<path d="M9 20.9688H6C4.34315 20.9688 3 19.6256 3 17.9688V5.96875C3 4.3119 4.34315 2.96875 6 2.96875H18C19.6568 2.96875 21 4.3119 21 5.96875V7.96874" stroke="#333333" stroke-width="1.5" stroke-linecap="round" stroke-linejoin="round"/>
</svg>
