<svg width="23" height="24" viewBox="0 0 23 24" fill="none" xmlns="http://www.w3.org/2000/svg">
<path d="M7.14282 3.42969V6.28683" stroke="#333333" stroke-width="1.5" stroke-linecap="round" stroke-linejoin="round"/>
<path d="M15.7144 3.42969V6.28683" stroke="#333333" stroke-width="1.5" stroke-linecap="round" stroke-linejoin="round"/>
<path d="M10.4762 20.5737H5.71432C4.95656 20.5737 4.22983 20.2726 3.69401 19.7369C3.15819 19.201 2.85718 18.4742 2.85718 17.7165V7.71652C2.85718 6.95876 3.15819 6.23203 3.69401 5.69621C4.22983 5.16039 4.95656 4.85938 5.71432 4.85938H17.1429C17.9006 4.85938 18.6273 5.16039 19.1632 5.69621C19.699 6.23203 20 6.95876 20 7.71652V9.14509" stroke="#333333" stroke-width="1.5" stroke-linecap="round" stroke-linejoin="round"/>
<path d="M10.9524 15.8125H10" stroke="#333333" stroke-width="1.5" stroke-linecap="round" stroke-linejoin="round"/>
<path d="M12.3809 12H10" stroke="#333333" stroke-width="1.5" stroke-linecap="round" stroke-linejoin="round"/>
<path d="M14.2856 20.0997V19.713C14.2871 19.1846 14.4978 18.6782 14.8715 18.3046C15.2451 17.9309 15.7515 17.7202 16.2799 17.7188H18.958C19.4864 17.7202 19.9928 17.9309 20.3666 18.3046C20.7402 18.6782 20.9508 19.1846 20.9523 19.713V20.0997C20.9523 20.2259 20.9021 20.3471 20.8128 20.4365C20.7236 20.5257 20.6024 20.5759 20.4762 20.5759H14.7619C14.6356 20.5759 14.5144 20.5257 14.4251 20.4365C14.3358 20.3471 14.2856 20.2259 14.2856 20.0997Z" stroke="#333333" stroke-width="1.5" stroke-linecap="round" stroke-linejoin="round"/>
<path d="M17.6192 15.5751C18.671 15.5751 19.5238 14.7223 19.5238 13.6704C19.5238 12.6184 18.671 11.7656 17.6192 11.7656C16.5672 11.7656 15.7144 12.6184 15.7144 13.6704C15.7144 14.7223 16.5672 15.5751 17.6192 15.5751Z" stroke="#333333" stroke-width="1.5" stroke-linecap="round" stroke-linejoin="round"/>
<path d="M6.66674 12.9516C7.19272 12.9516 7.61912 12.5252 7.61912 11.9993C7.61912 11.4733 7.19272 11.0469 6.66674 11.0469C6.14075 11.0469 5.71436 11.4733 5.71436 11.9993C5.71436 12.5252 6.14075 12.9516 6.66674 12.9516Z" fill="#333333"/>
<path d="M6.66674 16.7641C7.19272 16.7641 7.61912 16.3377 7.61912 15.8118C7.61912 15.2858 7.19272 14.8594 6.66674 14.8594C6.14075 14.8594 5.71436 15.2858 5.71436 15.8118C5.71436 16.3377 6.14075 16.7641 6.66674 16.7641Z" fill="#333333"/>
</svg>
