<svg width="24" height="24" viewBox="0 0 24 24" fill="none" xmlns="http://www.w3.org/2000/svg">
<path d="M11.5 20C6.806 20 3 16.194 3 11.5C3 6.806 6.806 3 11.5 3C16.194 3 20 6.806 20 11.5" stroke="#333333" stroke-width="1.5" stroke-linecap="round" stroke-linejoin="round"/>
<path d="M3.47998 8.67188H19.51" stroke="#333333" stroke-width="1.5" stroke-linecap="round" stroke-linejoin="round"/>
<path d="M3.47998 14.3281H11.5" stroke="#333333" stroke-width="1.5" stroke-linecap="round" stroke-linejoin="round"/>
<path d="M15.278 11.5002C15.278 8.89025 14.596 6.27925 13.231 4.00125C12.431 2.66625 10.569 2.66625 9.77004 4.00125C7.04004 8.55825 7.04004 14.4432 9.76904 19.0002C10.169 19.6672 10.834 20.0002 11.5 20.0002" stroke="#333333" stroke-width="1.5" stroke-linecap="round" stroke-linejoin="round"/>
<path d="M19.7231 17V15.723C19.7231 14.819 18.9521 14 18.0001 14C17.0481 14 16.2771 14.771 16.2771 15.723V17" stroke="#333333" stroke-width="1.5" stroke-linecap="round" stroke-linejoin="round"/>
<path d="M20.026 21H15.974C15.436 21 15 20.564 15 20.026V17.974C15 17.436 15.436 17 15.974 17H20.026C20.564 17 21 17.436 21 17.974V20.026C21 20.564 20.564 21 20.026 21Z" stroke="#333333" stroke-width="1.5" stroke-linecap="round" stroke-linejoin="round"/>
</svg>
