<svg width="24" height="24" viewBox="0 0 24 24" fill="none" xmlns="http://www.w3.org/2000/svg">
<path d="M9.81316 4.39318L3.92928 7.662V7.662C3.06002 8.14188 2.74436 9.23558 3.22425 10.1048C3.38809 10.4016 3.6325 10.646 3.92928 10.8099L9.81316 14.0787V14.0787C11.1737 14.8321 12.8263 14.8321 14.1868 14.0787L20.0707 10.8099H20.0707C20.94 10.33 21.2556 9.23629 20.7758 8.36703C20.6119 8.07025 20.3675 7.82584 20.0707 7.662L14.1868 4.39318H14.1868C12.8263 3.63977 11.1737 3.63977 9.81316 4.39318V4.39318Z" stroke="#333333" stroke-width="1.5" stroke-linecap="round" stroke-linejoin="round"/>
<path d="M20.9893 9.23438V13.6358" stroke="#333333" stroke-width="1.5" stroke-linecap="round" stroke-linejoin="round"/>
<path d="M6.27954 12.1094V16.0074V16.0075C6.2791 16.9102 6.7307 17.7533 7.48248 18.2531L9.01229 19.2714H9.01229C10.8217 20.4748 13.1766 20.4748 14.9861 19.2714L16.5159 18.2531V18.2531C17.2683 17.7537 17.7205 16.9105 17.7204 16.0074V12.111" stroke="#333333" stroke-width="1.5" stroke-linecap="round" stroke-linejoin="round"/>
</svg>
