<svg width="24" height="24" viewBox="0 0 24 24" fill="none" xmlns="http://www.w3.org/2000/svg">
<path d="M13.4729 18.446C14.2864 19.2595 14.2864 20.5784 13.4729 21.3918C12.6594 22.2053 11.3406 22.2053 10.5271 21.3918C9.71363 20.5784 9.71363 19.2595 10.5271 18.446C11.3406 17.6326 12.6594 17.6326 13.4729 18.446" stroke="#333333" stroke-width="1.5"/>
<path d="M13.4729 18.446C14.2864 19.2595 14.2864 20.5784 13.4729 21.3918C12.6594 22.2053 11.3406 22.2053 10.5271 21.3918C9.71363 20.5784 9.71363 19.2595 10.5271 18.446C11.3406 17.6326 12.6594 17.6326 13.4729 18.446" stroke="#333333" stroke-width="1.5"/>
<path d="M13.4729 2.6101C14.2864 3.42356 14.2864 4.74244 13.4729 5.55591C12.6594 6.36937 11.3406 6.36937 10.5271 5.55591C9.71363 4.74244 9.71363 3.42357 10.5271 2.6101C11.3406 1.79663 12.6594 1.79663 13.4729 2.6101" stroke="#333333" stroke-width="1.5"/>
<path d="M5.55591 10.5242C6.36937 11.3376 6.36937 12.6565 5.55591 13.47C4.74244 14.2834 3.42357 14.2834 2.6101 13.47C1.79663 12.6565 1.79663 11.3376 2.6101 10.5242C3.42356 9.7107 4.74244 9.7107 5.55591 10.5242Z" stroke="#333333" stroke-width="1.5"/>
<path d="M21.3899 10.5242C22.2034 11.3376 22.2034 12.6565 21.3899 13.47C20.5764 14.2834 19.2576 14.2834 18.4441 13.47C17.6306 12.6565 17.6306 11.3376 18.4441 10.5242C19.2575 9.7107 20.5764 9.7107 21.3899 10.5242" stroke="#333333" stroke-width="1.5"/>
<path d="M18.4011 7.60156C17.8621 6.81856 17.1841 6.14056 16.4011 5.60156" stroke="#333333" stroke-width="1.5" stroke-linecap="round" stroke-linejoin="round"/>
<path d="M5.59912 16.3984C6.13812 17.1814 6.81612 17.8594 7.59912 18.3984" stroke="#333333" stroke-width="1.5" stroke-linecap="round" stroke-linejoin="round"/>
<path d="M7.59912 5.60156C6.81612 6.14056 6.13812 6.81856 5.59912 7.60156" stroke="#333333" stroke-width="1.5" stroke-linecap="round" stroke-linejoin="round"/>
<path d="M16.4011 18.3984C17.1841 17.8594 17.8621 17.1814 18.4011 16.3984" stroke="#333333" stroke-width="1.5" stroke-linecap="round" stroke-linejoin="round"/>
</svg>
