<svg width="24" height="24" viewBox="0 0 24 24" fill="none" xmlns="http://www.w3.org/2000/svg">
<path d="M19.9962 21H4.0022C2.8972 21 2.0022 20.105 2.0022 19V5C2.0022 3.895 2.8972 3 4.0022 3H19.9962C21.1012 3 21.9962 3.895 21.9962 5V19C21.9962 20.105 21.1002 21 19.9962 21Z" stroke="#333333" stroke-width="1.5" stroke-linecap="round" stroke-linejoin="round"/>
<path d="M9.41422 7.58579C10.1953 8.36684 10.1953 9.63317 9.41422 10.4142C8.63317 11.1953 7.36684 11.1953 6.58579 10.4142C5.80474 9.63317 5.80474 8.36684 6.58579 7.58579C7.36684 6.80474 8.63317 6.80474 9.41422 7.58579Z" stroke="#333333" stroke-width="1.5" stroke-linecap="round" stroke-linejoin="round"/>
<path d="M21.9978 16.0004L17.7788 12.6254C17.3478 12.2804 16.7178 12.3504 16.3728 12.7814L13.0368 16.9514C12.6918 17.3824 12.0628 17.4524 11.6308 17.1074L9.7628 15.6124C9.3378 15.2724 8.7188 15.3344 8.3698 15.7534L3.9978 21.0004" stroke="#333333" stroke-width="1.5" stroke-linecap="round" stroke-linejoin="round"/>
</svg>
