<svg width="24" height="24" viewBox="0 0 24 24" fill="none" xmlns="http://www.w3.org/2000/svg">
<path d="M12 10.9989V3.32031" stroke="#333333" stroke-width="1.5" stroke-linecap="round" stroke-linejoin="round"/>
<path d="M12 11L15 8L12 11Z" stroke="#333333" stroke-width="1.5" stroke-linecap="round" stroke-linejoin="round"/>
<path d="M3 15H7.382V15C7.76044 15 8.10646 15.2137 8.276 15.552L8.723 16.447V16.447C8.89242 16.7861 9.23897 17.0002 9.618 17H14.381V17C14.76 17.0002 15.1066 16.7861 15.276 16.447L15.723 15.553V15.553C15.8924 15.2139 16.239 14.9998 16.618 15H21" stroke="#333333" stroke-width="1.5" stroke-linecap="round" stroke-linejoin="round"/>
<path d="M15 3H18V3C19.6568 3 21 4.34315 21 6V18C21 19.6568 19.6568 21 18 21H6H6C4.34315 21 3 19.6568 3 18V18V6V6C3 4.34315 4.34315 3 6 3H9" stroke="#333333" stroke-width="1.5" stroke-linecap="round" stroke-linejoin="round"/>
<path d="M9 8L12 11L9 8Z" stroke="#333333" stroke-width="1.5" stroke-linecap="round" stroke-linejoin="round"/>
</svg>
