<svg width="24" height="24" viewBox="0 0 24 24" fill="none" xmlns="http://www.w3.org/2000/svg">
<path d="M10 13.0001L10.953 13.9531V13.9531C12.5151 15.5153 15.0477 15.5153 16.6098 13.9533C16.6099 13.9532 16.6099 13.9532 16.61 13.9531L19.641 10.9221V10.9221C21.4532 9.10976 21.4532 6.17151 19.641 4.35914V4.35914C17.8286 2.54695 14.8904 2.54695 13.078 4.35914L12.191 5.24714" stroke="#333333" stroke-width="1.5" stroke-linecap="round" stroke-linejoin="round"/>
<path d="M13.9999 9.99965L13.0469 9.04665V9.04665C11.4848 7.48451 8.95217 7.48445 7.39004 9.0465C7.38999 9.04655 7.38994 9.0466 7.38989 9.04665L4.35889 12.0776V12.0776C2.54671 13.89 2.54671 16.8283 4.35889 18.6406H4.35889C6.17127 20.4528 9.10951 20.4528 10.9219 18.6406L11.8089 17.7526" stroke="#333333" stroke-width="1.5" stroke-linecap="round" stroke-linejoin="round"/>
</svg>
