<svg width="24" height="24" viewBox="0 0 24 24" fill="none" xmlns="http://www.w3.org/2000/svg">
<g clip-path="url(#clip0_1565_20)">
<path d="M9.2251 6.45469C9.2251 4.92269 10.4671 3.67969 12.0001 3.67969C13.5321 3.67969 14.7751 4.92169 14.7751 6.45469C14.7751 7.98669 13.5331 9.22969 12.0001 9.22969C10.4671 9.22769 9.2251 7.98569 9.2251 6.45469Z" stroke="#333333" stroke-width="1.5" stroke-linecap="round" stroke-linejoin="round"/>
<path d="M2.5 17.5484C2.5 16.0164 3.742 14.7734 5.275 14.7734C6.807 14.7734 8.05 16.0154 8.05 17.5484C8.049 19.0804 6.808 20.3234 5.275 20.3234C3.742 20.3234 2.5 19.0814 2.5 17.5484Z" stroke="#333333" stroke-width="1.5" stroke-linecap="round" stroke-linejoin="round"/>
<path d="M15.9509 17.5484C15.9509 16.0164 17.1929 14.7734 18.7259 14.7734C20.2579 14.7734 21.5009 16.0154 21.5009 17.5484C21.5009 19.0804 20.2589 20.3234 18.7259 20.3234C17.1919 20.3234 15.9509 19.0814 15.9509 17.5484Z" stroke="#333333" stroke-width="1.5" stroke-linecap="round" stroke-linejoin="round"/>
<path d="M8.48998 11.9219L6.47998 15.0619" stroke="#333333" stroke-width="1.5" stroke-linecap="round" stroke-linejoin="round"/>
<path d="M13.5 8.78125L15.51 11.9213" stroke="#333333" stroke-width="1.5" stroke-linecap="round" stroke-linejoin="round"/>
<path d="M15.95 17.5469H12" stroke="#333333" stroke-width="1.5" stroke-linecap="round" stroke-linejoin="round"/>
</g>
<defs>
<clipPath id="clip0_1565_20">
<rect width="24" height="24" fill="white"/>
</clipPath>
</defs>
</svg>
