<svg width="24" height="24" viewBox="0 0 24 24" fill="none" xmlns="http://www.w3.org/2000/svg">
<path d="M10.048 13.8651C8.87804 12.6951 7.99604 11.3851 7.41004 10.0561C7.28604 9.77506 7.35904 9.44606 7.57604 9.22906L8.39504 8.41006C9.06604 7.73906 9.06604 6.79006 8.48004 6.20406L7.30604 5.03106C6.52504 4.25006 5.25904 4.25006 4.47804 5.03106L3.82604 5.68206C3.08504 6.42306 2.77604 7.49206 2.97604 8.55206C3.47004 11.1651 4.98804 14.0261 7.43704 16.4751C9.88604 18.9241 12.747 20.4421 15.36 20.9361C16.42 21.1361 17.489 20.8271 18.23 20.0861L18.881 19.4351C19.662 18.6541 19.662 17.3881 18.881 16.6071L17.708 15.4341C17.122 14.8481 16.172 14.8481 15.587 15.4341L14.684 16.3381C14.467 16.5551 14.138 16.6281 13.857 16.5041C12.528 15.9171 11.218 15.0341 10.048 13.8651Z" stroke="#333333" stroke-width="1.5" stroke-linecap="round" stroke-linejoin="round"/>
<path d="M12.9199 5.16813V2.82812" stroke="#333333" stroke-width="1.5" stroke-linecap="round" stroke-linejoin="round"/>
<path d="M17.0901 6.81969L18.7401 5.17969" stroke="#333333" stroke-width="1.5" stroke-linecap="round" stroke-linejoin="round"/>
<path d="M18.75 11H21.08" stroke="#333333" stroke-width="1.5" stroke-linecap="round" stroke-linejoin="round"/>
</svg>
