<svg width="24" height="24" viewBox="0 0 24 24" fill="none" xmlns="http://www.w3.org/2000/svg">
<path d="M15.4121 4.02347L19.4778 8.08915C19.6648 8.27612 19.8079 8.50225 19.8969 8.75122C19.9859 9.0002 20.0186 9.26583 19.9925 9.52895C19.9665 9.79207 19.8824 10.0461 19.7463 10.2728C19.6101 10.4995 19.4254 10.6932 19.2054 10.8398C16.9227 12.3617 15.2891 14.6797 14.6237 17.3413L14.2534 18.8224C14.2151 18.9758 14.1367 19.1163 14.0263 19.2295C13.9159 19.3428 13.7774 19.4247 13.625 19.4669C13.4727 19.5091 13.3118 19.5101 13.1589 19.4698C13.006 19.4295 12.8665 19.3494 12.7547 19.2376L4.26367 10.7466C4.15186 10.6348 4.07172 10.4953 4.03143 10.3424C3.99115 10.1895 3.99217 10.0286 4.03438 9.8762C4.07659 9.72381 4.15848 9.58535 4.2717 9.47495C4.38492 9.36456 4.5254 9.28618 4.67881 9.24783L6.15992 8.87754C8.82153 8.21214 11.1396 6.57857 12.6614 4.29583C12.8081 4.07582 13.0017 3.8911 13.2284 3.75499C13.4551 3.61887 13.7092 3.53475 13.9723 3.5087C14.2354 3.48264 14.5011 3.5153 14.7501 3.60431C14.999 3.69333 15.2252 3.8365 15.4121 4.02347Z" stroke="#333333" stroke-width="1.5" stroke-linecap="round" stroke-linejoin="round"/>
<path d="M3.99902 19.4922L8.50685 14.9844" stroke="#333333" stroke-width="1.5" stroke-linecap="round" stroke-linejoin="round"/>
</svg>
