<svg width="24" height="24" viewBox="0 0 24 24" fill="none" xmlns="http://www.w3.org/2000/svg">
<path d="M11.9941 5H4.99414" stroke="#333333" stroke-width="1.5" stroke-linecap="round" stroke-linejoin="round"/>
<path d="M11.9971 5C16.4154 5 19.9971 8.58172 19.9971 13C19.9971 17.4183 16.4154 21 11.9971 21C7.57879 21 3.99707 17.4183 3.99707 13" stroke="#333333" stroke-width="1.5" stroke-linecap="round" stroke-linejoin="round"/>
<path d="M12 9.6394V8.875" stroke="#333333" stroke-width="1.5" stroke-linecap="round" stroke-linejoin="round"/>
<path d="M12 16.5156V17.2788" stroke="#333333" stroke-width="1.5" stroke-linecap="round" stroke-linejoin="round"/>
<path d="M10.0109 15.6958C10.3073 16.1818 10.8137 16.5166 11.4269 16.5166H11.9993H12.6821C13.5713 16.5166 14.2901 15.7966 14.2901 14.9086C14.2901 14.1706 13.7873 13.5286 13.0721 13.3474L10.9241 12.8074C10.2101 12.6286 9.70728 11.9866 9.70728 11.2486C9.70728 10.3594 10.4273 9.64062 11.3153 9.64062H11.9993H12.5717C13.1825 9.64062 13.6889 9.97542 13.9841 10.4602" stroke="#333333" stroke-width="1.5" stroke-linecap="round" stroke-linejoin="round"/>
<path d="M7.99414 2L4.99414 5" stroke="#333333" stroke-width="1.5" stroke-linecap="round" stroke-linejoin="round"/>
<path d="M7.99414 8L4.99414 5" stroke="#333333" stroke-width="1.5" stroke-linecap="round" stroke-linejoin="round"/>
</svg>
