<svg width="24" height="24" viewBox="0 0 24 24" fill="none" xmlns="http://www.w3.org/2000/svg">
<path d="M19 8H15C14.448 8 14 7.552 14 7V3" stroke="#333333" stroke-width="1.5" stroke-linecap="round" stroke-linejoin="round"/>
<path d="M5 13V5C5 3.895 5.895 3 7 3H14.172C14.702 3 15.211 3.211 15.586 3.586L18.414 6.414C18.789 6.789 19 7.298 19 7.828V19C19 20.105 18.105 21 17 21H13" stroke="#333333" stroke-width="1.5" stroke-linecap="round" stroke-linejoin="round"/>
<path d="M10.247 19.3907C9.24195 20.3957 7.61495 20.3957 6.60995 19.3907C5.60495 18.3857 5.60495 16.7587 6.60995 15.7537C7.61495 14.7487 9.24195 14.7487 10.247 15.7537C11.251 16.7587 11.251 18.3877 10.247 19.3907Z" stroke="#333333" stroke-width="1.2857" stroke-linecap="round" stroke-linejoin="round"/>
<path d="M9 11H15" stroke="#333333" stroke-width="1.5" stroke-linecap="round" stroke-linejoin="round"/>
<path d="M13 14H15" stroke="#333333" stroke-width="1.5" stroke-linecap="round" stroke-linejoin="round"/>
<path d="M5 21.0016L6.61 19.3906" stroke="#333333" stroke-width="1.2857" stroke-linecap="round" stroke-linejoin="round"/>
</svg>
