<svg width="24" height="24" viewBox="0 0 24 24" fill="none" xmlns="http://www.w3.org/2000/svg">
<path d="M19.9453 15.266C21.2583 16.5789 21.2583 18.7076 19.9453 20.0205C18.6324 21.3335 16.5037 21.3335 15.1908 20.0205C13.8778 18.7076 13.8778 16.5789 15.1908 15.266C16.5037 13.953 18.6324 13.953 19.9453 15.266Z" stroke="#333333" stroke-width="1.5" stroke-linecap="round" stroke-linejoin="round"/>
<path d="M21.2529 7.15525L18.3549 10.0532C17.9169 10.4912 17.2079 10.4912 16.7699 10.0532L13.8719 7.15525C13.4349 6.71825 13.4349 6.00825 13.8719 5.57125L16.7699 2.67225C17.2079 2.23425 17.9169 2.23425 18.3549 2.67225L21.2529 5.57025C21.6899 6.00825 21.6899 6.71725 21.2529 7.15525Z" stroke="#333333" stroke-width="1.5" stroke-linecap="round" stroke-linejoin="round"/>
<path d="M4.31802 9.53531H8.41602C9.03502 9.53531 9.53702 9.03331 9.53702 8.41431V4.31631C9.53702 3.69731 9.03502 3.19531 8.41602 3.19531H4.31802C3.69902 3.19531 3.19702 3.69731 3.19702 4.31631V8.41431C3.19702 9.03331 3.69902 9.53531 4.31802 9.53531Z" stroke="#333333" stroke-width="1.5" stroke-linecap="round" stroke-linejoin="round"/>
<path d="M5.36402 15.1564L2.88002 19.1324C2.38802 19.9194 2.95402 20.9404 3.88202 20.9404H8.85102C9.77902 20.9404 10.345 19.9194 9.85302 19.1324L7.36902 15.1574C6.90602 14.4164 5.82702 14.4164 5.36402 15.1564Z" stroke="#333333" stroke-width="1.5" stroke-linecap="round" stroke-linejoin="round"/>
</svg>
