<svg width="24" height="24" viewBox="0 0 24 24" fill="none" xmlns="http://www.w3.org/2000/svg">
<path d="M20 13.0209C20 16.7956 15.3551 19.5997 13.1401 20.7255C12.7878 20.9056 12.3978 20.9997 12.0021 21.0001C11.6064 21.0004 11.2163 20.907 10.8637 20.7275C8.65012 19.6027 4 16.7918 4 13.0209V7.56938C4.00355 7.3225 4.09721 7.08544 4.26336 6.9028C4.4295 6.72016 4.65666 6.60454 4.9021 6.5777C7.02402 6.41646 9.05835 5.66412 10.7746 4.40594C11.1288 4.14236 11.5585 4 12 4C12.4415 4 12.8712 4.14236 13.2254 4.40594C14.9416 5.66412 16.9759 6.41646 19.0979 6.5777C19.3433 6.60453 19.5705 6.72015 19.7366 6.90279C19.9028 7.08543 19.9964 7.3225 20 7.56938V13.0209Z" stroke="#333333" stroke-width="1.5" stroke-linecap="round" stroke-linejoin="round"/>
</svg>
