<svg width="24" height="24" viewBox="0 0 24 24" fill="none" xmlns="http://www.w3.org/2000/svg">
<path d="M11.3633 3.23233C11.7242 2.92256 12.2748 2.92256 12.6367 3.23233C14.4026 4.74725 16.6407 5.72674 19.0996 5.9208C19.6115 5.96079 19.9998 6.39818 20 6.91202V11.2421C20 15.609 16.8443 19.7025 12.5234 20.9267C12.1844 21.0227 11.8165 21.0227 11.4775 20.9267C7.15572 19.7035 4 15.608 4 11.2411V6.91104C4.00019 6.3982 4.38851 5.96079 4.90039 5.9208C7.35925 5.72674 9.59737 4.74625 11.3633 3.23233ZM16.0254 9.63467C15.6348 9.2446 15.0017 9.24434 14.6113 9.63467L11.1699 13.0751L9.38867 11.2939L9.3125 11.2245C8.91975 10.9048 8.34051 10.928 7.97461 11.2939C7.60865 11.6599 7.58612 12.239 7.90625 12.6317L7.97461 12.7079L10.4639 15.1972C10.6513 15.3844 10.9059 15.4901 11.1709 15.4901C11.436 15.4901 11.6905 15.3846 11.8779 15.1972L16.0254 11.0487C16.4159 10.6582 16.4159 10.0252 16.0254 9.63467Z" fill="#333333"/>
</svg>
