<svg width="24" height="24" viewBox="0 0 24 24" fill="none" xmlns="http://www.w3.org/2000/svg">
<path d="M12.9 11.0859L5.69995 18.2859" stroke="#333333" stroke-width="1.5" stroke-linecap="round" stroke-linejoin="round"/>
<path d="M10.2 11.0859H12.9V13.7859" stroke="#333333" stroke-width="1.5" stroke-linecap="round" stroke-linejoin="round"/>
<path d="M8.4 20.2304C9.503 20.7124 10.719 20.9843 12 20.9843C16.971 20.9843 21 16.9553 21 11.9844C21 7.01338 16.971 2.98438 12 2.98438C7.029 2.98438 3 7.01338 3 11.9844C3 13.2784 3.278 14.5054 3.77 15.6173" stroke="#333333" stroke-width="1.5" stroke-linecap="round" stroke-linejoin="round"/>
<path d="M11.1001 17.306C11.3931 17.357 11.6931 17.3859 12.0001 17.3859C14.9821 17.3859 17.4001 14.9679 17.4001 11.9859C17.4001 9.00394 14.9821 6.58594 12.0001 6.58594C9.0181 6.58594 6.6001 9.00394 6.6001 11.9859C6.6001 12.293 6.6291 12.593 6.6801 12.8859" stroke="#333333" stroke-width="1.5" stroke-linecap="round" stroke-linejoin="round"/>
</svg>
