<svg width="24" height="24" viewBox="0 0 24 24" fill="none" xmlns="http://www.w3.org/2000/svg">
<path d="M7.73304 20.8254H7.73305C6.99865 21.2088 6.09253 20.9242 5.70919 20.1898C5.55585 19.896 5.5041 19.5597 5.56204 19.2334L6.37104 14.5964L2.96504 11.3324V11.3324C2.36553 10.7607 2.343 9.81123 2.91473 9.21172C3.14806 8.96704 3.45722 8.80837 3.79204 8.76144L8.52104 8.08544L10.656 3.82644V3.82644C11.0239 3.08417 11.9239 2.78065 12.6661 3.14852C12.9602 3.29425 13.1983 3.53239 13.344 3.82644L15.479 8.08544L20.208 8.76144V8.76144C21.0285 8.87643 21.6003 9.63472 21.4853 10.4551C21.4384 10.7899 21.2797 11.0991 21.035 11.3324L17.629 14.5964L18.438 19.2344V19.2344C18.5829 20.0501 18.0391 20.8287 17.2234 20.9736C16.8971 21.0315 16.5608 20.9798 16.267 20.8264L12 18.6214L7.73304 20.8254Z" stroke="#333333" stroke-width="1.5" stroke-linecap="round" stroke-linejoin="round"/>
</svg>
