<svg width="24" height="24" viewBox="0 0 24 24" fill="none" xmlns="http://www.w3.org/2000/svg">
<path d="M8.2328 20.8333H8.2328C7.4984 21.2166 6.59229 20.932 6.20895 20.1976C6.0556 19.9038 6.00386 19.5675 6.0618 19.2412L6.8708 14.6042L3.4648 11.3402C2.86528 10.7685 2.84276 9.81904 3.41448 9.21953C3.64782 8.97485 3.95697 8.81618 4.2918 8.76925L9.0208 8.09325L11.1558 3.83425C11.5237 3.09198 12.4236 2.78846 13.1659 3.15633C13.4599 3.30206 13.6981 3.54021 13.8438 3.83425L15.9788 8.09325L20.7078 8.76925C21.5282 8.88424 22.1001 9.64253 21.9851 10.4629C21.9382 10.7978 21.7795 11.1069 21.5348 11.3402L18.1288 14.6042L18.9378 19.2423C19.0826 20.0579 18.5388 20.8366 17.7232 20.9814C17.3969 21.0393 17.0606 20.9876 16.7668 20.8342L12.4998 18.6292L8.2328 20.8333Z" fill="#FFCB47"/>
</svg>
