<svg width="24" height="24" viewBox="0 0 24 24" fill="none" xmlns="http://www.w3.org/2000/svg">
<path d="M15 8.62419V8.99919C15 10.6492 13.65 11.9992 12 11.9992L11.99 11.9982C10.33 11.9882 8.98999 10.6482 8.98999 8.99819V8.99719V8.61719" stroke="#333333" stroke-width="1.5" stroke-linecap="round" stroke-linejoin="round"/>
<path d="M15 8.62392V8.99892C15 10.6489 16.34 11.9889 18 11.9889H18.24H18.23C19.74 11.9789 20.98 10.7489 20.98 9.22892C20.98 8.81892 20.86 8.41892 20.65 8.06892L18.25 4.06892C17.84 3.38892 17.11 2.96892 16.32 2.96892H7.61003C6.81003 2.95892 6.08003 3.37892 5.68003 4.05892L3.28003 8.04892V8.03892C3.07003 8.37892 2.95003 8.77892 2.95003 9.18892H2.94903V9.17893C2.93903 10.6889 4.17903 11.9289 5.69903 11.9289H5.93903L5.92903 11.9279C7.57903 11.9279 8.92903 10.5779 8.92903 8.92792V8.54792" stroke="#333333" stroke-width="1.5" stroke-linecap="round" stroke-linejoin="round"/>
<path d="M19.875 11.4585V18.7385C19.875 19.9785 18.865 20.9885 17.625 20.9885H6.37499L6.36499 20.9875C5.11499 20.9775 4.11499 19.9775 4.11499 18.7275V11.4375" stroke="#333333" stroke-width="1.5" stroke-linecap="round" stroke-linejoin="round"/>
<path d="M13.6901 16.8359H10.3101" stroke="#333333" stroke-width="1.5" stroke-linecap="round" stroke-linejoin="round"/>
</svg>
