<svg width="24" height="24" viewBox="0 0 24 24" fill="none" xmlns="http://www.w3.org/2000/svg">
<path d="M8.31315 7.75619C8.46506 7.9081 8.46506 8.1544 8.31315 8.30631C8.16124 8.45823 7.91494 8.45823 7.76302 8.30631C7.61111 8.1544 7.61111 7.9081 7.76302 7.75619C7.91494 7.60427 8.16124 7.60427 8.31315 7.75619" stroke="#333333" stroke-width="1.5" stroke-linecap="round" stroke-linejoin="round"/>
<path fill-rule="evenodd" clip-rule="evenodd" d="M7.244 3.02509L10.093 3.00009C10.624 2.99509 11.135 3.20509 11.511 3.58009L20.415 12.4881C21.196 13.2691 21.196 14.5361 20.415 15.3171L15.321 20.4141C14.54 21.1961 13.272 21.1961 12.491 20.4141L3.58 11.5001C3.209 11.1291 3 10.6251 3 10.0991V7.28709C3 6.76109 3.209 6.25709 3.58 5.88609L5.86 3.60509C6.228 3.23709 6.725 3.02909 7.244 3.02509Z" stroke="#333333" stroke-width="1.5" stroke-linecap="round" stroke-linejoin="round"/>
</svg>
