<svg width="24" height="24" viewBox="0 0 24 24" fill="none" xmlns="http://www.w3.org/2000/svg">
<path d="M12.522 3.55882V2.5" stroke="#333333" stroke-width="1.5" stroke-linecap="round" stroke-linejoin="round"/>
<path d="M7.75731 7.79688H6.69849" stroke="#333333" stroke-width="1.5" stroke-linecap="round" stroke-linejoin="round"/>
<path d="M18.3457 7.79688H17.2869" stroke="#333333" stroke-width="1.5" stroke-linecap="round" stroke-linejoin="round"/>
<path d="M9.34562 4.61589L8.59692 3.86719" stroke="#333333" stroke-width="1.5" stroke-linecap="round" stroke-linejoin="round"/>
<path d="M15.6985 4.61589L16.4472 3.86719" stroke="#333333" stroke-width="1.5" stroke-linecap="round" stroke-linejoin="round"/>
<path d="M9.24976 12.3828V20.4963" stroke="#333333" stroke-width="1.5" stroke-linecap="round" stroke-linejoin="round"/>
<path d="M14.6692 12.3828H16.9166C17.2352 12.3828 17.5497 12.4543 17.837 12.5919C18.1243 12.7296 18.3771 12.93 18.5766 13.1783C18.7762 13.4266 18.9176 13.7165 18.9903 14.0267C19.063 14.3368 19.0651 14.6593 18.9966 14.9705L18.1483 18.8244C18.044 19.2983 17.7809 19.7224 17.4026 20.0265C17.0244 20.3305 16.5536 20.4963 16.0683 20.4963" stroke="#333333" stroke-width="1.5" stroke-linecap="round" stroke-linejoin="round"/>
<path d="M16.0682 20.4963H6.26802C5.9856 20.4963 5.71473 20.3841 5.51503 20.1844C5.31532 19.9847 5.20312 19.7138 5.20312 19.4314V13.4477C5.20313 13.1653 5.31532 12.8944 5.51503 12.6947C5.71474 12.495 5.9856 12.3828 6.26802 12.3828H9.25987" stroke="#333333" stroke-width="1.5" stroke-linecap="round" stroke-linejoin="round"/>
<path d="M14.6689 12.3889V9.43366C14.6689 9.16991 14.5954 8.91136 14.4568 8.68702C14.3181 8.46268 14.1196 8.2814 13.8837 8.16351L13.5244 7.98402C13.1081 7.77603 12.6268 7.73985 12.1841 7.88328C11.7414 8.0267 11.3728 8.33825 11.1576 8.75083L9.25977 12.3889" stroke="#333333" stroke-width="1.5" stroke-linecap="round" stroke-linejoin="round"/>
</svg>
