<svg width="24" height="24" viewBox="0 0 24 24" fill="none" xmlns="http://www.w3.org/2000/svg">
<path d="M17.0531 5.14062L18.9411 5.14062C19.5241 5.14062 19.9971 5.61362 19.9971 6.19662L19.9971 13.5846C19.9971 14.1676 19.5241 14.6406 18.9411 14.6406L17.0531 14.6406C16.4701 14.6406 15.9971 14.1676 15.9971 13.5846L15.9971 6.19662C15.9971 5.61362 16.4701 5.14062 17.0531 5.14062Z" stroke="#333333" stroke-width="1.5" stroke-linecap="round" stroke-linejoin="round"/>
<path d="M15.9976 13.571L12.3486 18.322C11.6696 19.207 10.3436 19.229 9.63456 18.368C9.36956 18.047 9.22556 17.643 9.22556 17.227L9.22556 13.956L6.12956 13.956C5.52856 13.956 4.96756 13.656 4.63356 13.157L4.30456 12.666C4.00956 12.225 3.92356 11.676 4.07056 11.167L5.42956 6.445C5.65156 5.674 6.35656 5.143 7.15856 5.143L13.4476 5.143C13.9476 5.143 14.4256 5.351 14.7656 5.717L15.9976 7.043" stroke="#333333" stroke-width="1.5" stroke-linecap="round" stroke-linejoin="round"/>
</svg>
