<svg width="24" height="24" viewBox="0 0 24 24" fill="none" xmlns="http://www.w3.org/2000/svg">
<path d="M6.944 19H5.056C4.473 19 4 18.527 4 17.944V10.556C4 9.973 4.473 9.5 5.056 9.5H6.944C7.527 9.5 8 9.973 8 10.556V17.944C8 18.527 7.527 19 6.944 19Z" stroke="#333333" stroke-width="1.5" stroke-linecap="round" stroke-linejoin="round"/>
<path d="M8 10.5696L11.649 5.81862C12.328 4.93362 13.654 4.91162 14.363 5.77262C14.628 6.09362 14.772 6.49762 14.772 6.91362V10.1846H17.868C18.469 10.1846 19.03 10.4846 19.364 10.9836L19.693 11.4746C19.988 11.9156 20.074 12.4646 19.927 12.9736L18.568 17.6956C18.346 18.4666 17.641 18.9976 16.839 18.9976H10.55C10.05 18.9976 9.572 18.7896 9.232 18.4236L8 17.0976" stroke="#333333" stroke-width="1.5" stroke-linecap="round" stroke-linejoin="round"/>
</svg>
