<svg width="18" height="20" viewBox="0 0 18 20" fill="none" xmlns="http://www.w3.org/2000/svg">
<g clip-path="url(#clip0_3186_139)">
<path d="M14.4833 3.86401C15.2399 4.64416 16.1835 5.1196 17.1344 5.33599V4.75012C16.2409 4.68683 15.3062 4.40567 14.4833 3.86401ZM9.01765 0V13.1007C9.01765 14.8171 7.78408 15.9211 6.28411 15.9211C5.78655 15.9211 5.31406 15.8048 4.90334 15.5899C5.42444 16.2552 6.24733 16.638 7.14967 16.638C8.64968 16.638 9.88325 15.534 9.88325 13.8161V0.715375H12.2606C12.1958 0.487237 12.1428 0.248753 12.1015 0H9.01765ZM7.06724 7.61611V6.96692C6.76695 6.9169 6.46665 6.9007 6.21789 6.9007C2.83365 6.9007 0 9.61652 0 12.9845C0 15.1954 1.07606 17.0854 2.71148 18.2041C1.57213 17.0737 0.865562 15.4913 0.865562 13.6999C0.865562 10.3378 3.69039 7.62345 7.06724 7.61611Z" fill="#2DCCD3"/>
<path d="M12.4504 12.8877C12.4504 17.0711 9.25023 19.288 6.234 19.288C4.92832 19.288 3.71537 18.8935 2.71143 18.2075C3.83902 19.3262 5.39058 20.0034 7.09956 20.0034C10.1158 20.0034 13.3159 17.7865 13.3159 13.6031V6.78632C13.0157 6.58317 12.7271 6.34621 12.4504 6.06946V12.8877ZM4.90333 15.5933C4.53528 15.1281 4.31596 14.526 4.31596 13.8195C4.31596 11.8367 5.86599 10.7887 7.93271 11.0065V7.68571C7.63245 7.63565 7.33215 7.61945 7.08191 7.61945H7.06719V10.2897C5.00047 10.0733 3.4504 11.1199 3.4504 13.1041C3.4504 14.264 4.04362 15.1443 4.90333 15.5933ZM17.1344 5.33936V7.81967C15.761 7.81967 14.4612 7.55764 13.3159 6.78632C14.6496 8.11996 16.2674 8.53653 17.9999 8.53653V5.46891C17.7084 5.44932 17.4189 5.40599 17.1344 5.33936ZM14.4833 3.86734C13.7517 3.11515 13.1938 2.07887 12.9671 0.71875H12.2605C12.6638 2.18929 13.4941 3.21526 14.4833 3.86734Z" fill="#F1204A"/>
<path d="M6.23397 19.2879C9.25016 19.2879 12.4504 17.0711 12.4504 12.8877V6.06946C12.7271 6.34617 13.0156 6.58317 13.3159 6.78628C14.4611 7.5576 15.761 7.81963 17.1344 7.81963V5.33932C16.1834 5.12294 15.2399 4.64745 14.4832 3.86734C13.494 3.21522 12.6638 2.18925 12.2605 0.71875H9.88313V13.8195C9.88313 15.5373 8.64956 16.6413 7.14959 16.6413C6.2472 16.6413 5.42436 16.2586 4.90326 15.5933C4.04359 15.1443 3.45037 14.264 3.45037 13.1041C3.45037 11.1198 5.0004 10.0732 7.06716 10.2896V7.61945C3.69031 7.62683 0.865479 10.3412 0.865479 13.7032C0.865479 15.4946 1.57205 17.077 2.71144 18.2075C3.71534 18.8935 4.92829 19.2879 6.23397 19.2879Z" fill="black"/>
</g>
<defs>
<clipPath id="clip0_3186_139">
<rect width="18" height="20" fill="white"/>
</clipPath>
</defs>
</svg>
