<svg width="24" height="24" viewBox="0 0 24 24" fill="none" xmlns="http://www.w3.org/2000/svg">
<path d="M12.4538 2.01667C13.5846 2 14.7071 2.00867 15.8289 2C15.8662 3.35463 16.4354 4.57387 17.341 5.47696L17.3396 5.47562C18.3143 6.32335 19.5825 6.87294 20.9807 6.96632L21 6.96765V10.3266C19.6792 10.2945 18.4372 10.0004 17.3175 9.49483L17.3741 9.51751C16.8326 9.26606 16.3746 9.00794 15.9394 8.7198L15.9753 8.74248C15.967 11.1763 15.9836 13.6101 15.9581 16.0352C15.8869 17.2711 15.4614 18.3983 14.7789 19.3394L14.7927 19.3187C13.6516 20.8968 11.8031 21.9326 9.70104 21.994H9.69137C9.6064 21.998 9.50624 22 9.40539 22C8.21035 22 7.09337 21.6785 6.14149 21.1203L6.16912 21.1356C4.43666 20.1291 3.24163 18.407 3.02058 16.4041L3.01782 16.3767C3.00055 15.9598 2.99226 15.543 3.00953 15.1348C3.34801 11.9473 6.11386 9.48149 9.47585 9.48149C9.8537 9.48149 10.224 9.51284 10.5838 9.5722L10.5452 9.56686C10.5624 10.8001 10.5106 12.034 10.5106 13.2673C10.2184 13.1652 9.88133 13.1059 9.52973 13.1059C8.23936 13.1059 7.14173 13.9022 6.73555 15.0141L6.72934 15.0341C6.63746 15.3189 6.58427 15.6464 6.58427 15.9852C6.58427 16.1226 6.59325 16.2587 6.60983 16.3921L6.60845 16.376C6.83779 17.7407 8.0494 18.7705 9.51039 18.7705C9.55252 18.7705 9.59397 18.7698 9.63542 18.7678H9.6292C10.6398 18.7385 11.5171 18.2136 12.0131 17.4379L12.02 17.4259C12.2044 17.1778 12.3308 16.8776 12.3729 16.5515L12.3736 16.5421C12.46 15.0501 12.4254 13.5667 12.4337 12.0747C12.442 8.7158 12.4254 5.3649 12.451 2.01467L12.4538 2.01667Z" fill="black"/>
</svg>
