<svg width="24" height="24" viewBox="0 0 24 24" fill="none" xmlns="http://www.w3.org/2000/svg">
<path d="M19 7L18.1327 19.1425C18.0966 19.647 17.8708 20.1191 17.5007 20.4637C17.1305 20.8084 16.6435 21 16.1378 21H7.86224C7.35647 21 6.86949 20.8084 6.49933 20.4637C6.12918 20.1191 5.90335 19.647 5.86732 19.1425L5 7" stroke="#333333" stroke-width="1.5" stroke-linecap="round" stroke-linejoin="round"/>
<path d="M8.5 7V4.5C8.5 4.10218 8.65804 3.72064 8.93934 3.43934C9.22064 3.15804 9.60218 3 10 3H14C14.3978 3 14.7794 3.15804 15.0607 3.43934C15.342 3.72064 15.5 4.10218 15.5 4.5V7" stroke="#333333" stroke-width="1.5" stroke-linecap="round" stroke-linejoin="round"/>
<path d="M20.5 7H3.5" stroke="#333333" stroke-width="1.5" stroke-linecap="round" stroke-linejoin="round"/>
</svg>
