<svg width="24" height="24" viewBox="0 0 24 24" fill="none" xmlns="http://www.w3.org/2000/svg">
<path fill-rule="evenodd" clip-rule="evenodd" d="M2.17371 5C0.973201 5 0 5.9732 0 7.1737V14.6526C0 17.0535 1.9464 18.9999 4.3474 18.9999H14.8263C16.0268 18.9999 17 18.0268 17 16.8263V9.34741C17 6.9464 15.0535 5 12.6526 5H2.17371ZM24 6.96352V17.036C24 17.8532 23.0729 18.3254 22.4118 17.8447L19.3236 15.5987C18.8061 15.2223 18.5 14.6212 18.5 13.9813V10.0182C18.5 9.37832 18.8061 8.77709 19.3236 8.40072L22.4118 6.15479C23.0729 5.67409 24 6.14624 24 6.96352Z" fill="#0E71EB"/>
</svg>
