<svg width="200" height="45" viewBox="0 0 200 45" fill="none" xmlns="http://www.w3.org/2000/svg">
  <path fill-rule="evenodd" clip-rule="evenodd" d="M41.0778 3.86523L13.0702 12.2675L3.73438 41.2086L32.6755 32.8064L41.0778 3.86523ZM22.4056 27.2048C24.9836 27.2048 27.0735 25.1149 27.0735 22.5369C27.0735 19.9588 24.9836 17.8689 22.4056 17.8689C19.8276 17.8689 17.7377 19.9588 17.7377 22.5369C17.7377 25.1149 19.8276 27.2048 22.4056 27.2048Z" fill="#15B078"/>
  <path d="M162.705 24.9972V38.1671H169.214V23.5735C169.214 17.675 167.434 13.0986 160.366 13.0986C156.807 13.0986 154.315 14.6749 152.993 17.2682H152.841L152.891 13.5563H146.383V38.1671H152.891V25.9125C152.891 21.7938 154.264 18.4378 158.281 18.4378C162.044 18.4378 162.705 21.3361 162.705 24.9972Z" fill="#15B078"/>
  <path d="M134.451 35.3196L134.553 38.1671H140.807V24.082C140.807 19.9124 139.892 17.675 138.112 15.9462C136.282 14.2173 133.79 13.0986 129.417 13.0986C125.146 13.0986 121.688 14.5732 119.807 15.6919L121.79 19.8615C122.858 19.0479 125.553 17.8276 128.807 17.8276C132.214 17.8276 134.299 19.3022 134.299 22.4548V23.1158L128.4 23.5226C123.315 23.8786 118.281 25.8617 118.281 30.9974C118.281 36.1331 122.146 38.7264 126.926 38.7264C130.587 38.7264 133.434 37.0993 134.451 35.3196ZM129.926 27.3363L134.349 27.0821V31.6076C133.485 32.828 131.604 34.3026 129.061 34.3026C126.366 34.3026 124.79 32.8788 124.79 30.794C124.79 28.7092 126.468 27.5397 129.926 27.3363Z" fill="#15B078"/>
  <path d="M84.6788 27.9465H102.781C102.781 27.9465 102.883 25.9125 102.883 24.6413C102.883 18.0818 98.3063 13.0986 90.7298 13.0986C83.7127 13.0986 77.9668 18.3869 77.9668 26.2685C77.9668 34.2009 83.4585 38.7264 90.8824 38.7264C96.8826 38.7264 100.595 36.184 101.967 34.7602L99.425 31.2517C98.2555 32.2686 95.3062 33.7432 92.0011 33.7432C88.2891 33.7432 85.289 31.8618 84.6788 27.9465ZM90.679 17.9293C95.2554 17.9293 96.2724 21.031 96.3741 23.726H84.5771C84.7805 20.6243 86.8145 17.9293 90.679 17.9293Z" fill="#15B078"/>
  <path d="M63.8193 6.35938V32.6722H76.0738V38.1639H57.2598V6.35938L63.8193 6.35938Z" fill="#15B078"/>
  <path d="M113.915 6.35938V38.1639H107.457V6.35938L113.915 6.35938Z" fill="#15B078"/>
  <path fill-rule="evenodd" clip-rule="evenodd" d="M200 6.35938V38.1639H193.847L193.796 34.2994H193.644C191.661 37.452 188.61 38.7232 185.203 38.7232C177.982 38.7232 173.559 33.1298 173.559 25.8076C173.559 18.8413 178.186 13.0954 185.661 13.0954C188.966 13.0954 191.762 14.3158 193.491 16.9599H193.593C193.542 15.8412 193.542 14.5192 193.542 12.7903V6.35938L200 6.35938ZM180.169 25.8076C180.169 30.0789 182.813 33.4349 187.034 33.4349C190.949 33.4349 193.695 30.4348 193.695 25.8076C193.695 21.6889 191 18.0786 186.83 18.0786C182.61 18.0786 180.169 21.6889 180.169 25.8076Z" fill="#15B078"/>
</svg>
