<svg width="24" height="24" viewBox="0 0 24 24" fill="none" xmlns="http://www.w3.org/2000/svg">
<path d="M11.2781 10.5341L14.2521 7.56011V7.56011C14.2837 7.52843 14.2836 7.47714 14.252 7.44556C14.2451 7.43869 14.237 7.43312 14.2281 7.42911V7.42911C12.4729 6.67451 10.4355 7.05756 9.07412 8.39811V8.39811C7.76974 9.67316 7.35047 11.6027 8.00812 13.3041L3.55212 17.7631V17.7631C2.81628 18.4998 2.81628 19.6934 3.55212 20.4301V20.4301C4.28886 21.166 5.48239 21.166 6.21912 20.4301L10.7111 15.9381V15.9381C13.118 16.8337 15.7952 15.6086 16.6909 13.2017C17.1121 12.0697 17.0763 10.8182 16.5911 9.71211V9.71211C16.571 9.67153 16.5218 9.65493 16.4812 9.67504C16.4739 9.67869 16.4671 9.68344 16.4611 9.68911L13.4121 12.6671L12.3461 11.5981L11.2781 10.5341Z" stroke="#333333" stroke-width="1.5" stroke-linecap="round" stroke-linejoin="round"/>
<path d="M7.105 19.5453V19.5453C11.2821 22.2598 16.8688 21.0741 19.5833 16.897C22.2978 12.7199 21.1121 7.13321 16.935 4.41871C12.7579 1.70423 7.17121 2.88992 4.45671 7.067C2.51977 10.0476 2.51401 13.8879 4.442 16.8743" stroke="#333333" stroke-width="1.5" stroke-linecap="round" stroke-linejoin="round"/>
</svg>
